<svg xmlns="http://www.w3.org/2000/svg" viewBox="0 0 64 64" role="img" aria-label="D20 de Foundry">
  <defs>
    <radialGradient id="glow" cx="50%" cy="42%" r="62%">
      <stop offset="0" stop-color="#62f58b" stop-opacity="0.34"/>
      <stop offset="0.58" stop-color="#38d96b" stop-opacity="0.16"/>
      <stop offset="1" stop-color="#020805" stop-opacity="0"/>
    </radialGradient>
    <linearGradient id="die" x1="14" y1="8" x2="50" y2="56" gradientUnits="userSpaceOnUse">
      <stop offset="0" stop-color="#1b4f2c"/>
      <stop offset="0.48" stop-color="#07170d"/>
      <stop offset="1" stop-color="#020805"/>
    </linearGradient>
    <linearGradient id="edge" x1="18" y1="10" x2="48" y2="54" gradientUnits="userSpaceOnUse">
      <stop offset="0" stop-color="#f1c453"/>
      <stop offset="0.38" stop-color="#62f58b"/>
      <stop offset="1" stop-color="#126530"/>
    </linearGradient>
    <filter id="soft-shadow" x="-30%" y="-30%" width="160%" height="160%">
      <feDropShadow dx="0" dy="2" stdDeviation="2" flood-color="#000" flood-opacity="0.68"/>
      <feDropShadow dx="0" dy="0" stdDeviation="1.3" flood-color="#38d96b" flood-opacity="0.45"/>
    </filter>
  </defs>

  <rect width="64" height="64" rx="12" fill="#020805"/>
  <circle cx="32" cy="32" r="30" fill="url(#glow)"/>

  <g filter="url(#soft-shadow)">
    <path d="M32 6 54 20 49 48 32 58 15 48 10 20Z" fill="url(#die)" stroke="url(#edge)" stroke-width="2.8" stroke-linejoin="round"/>
    <path d="M32 6v18l22-4M32 24 10 20M32 24l17 24M32 24 15 48M32 24v34" fill="none" stroke="#38d96b" stroke-opacity="0.58" stroke-width="1.6" stroke-linecap="round" stroke-linejoin="round"/>
    <path d="M10 20 32 58 54 20" fill="none" stroke="#f1c453" stroke-opacity="0.24" stroke-width="1.25" stroke-linejoin="round"/>
  </g>

  <g aria-hidden="true" font-family="'Share Tech Mono','Courier New',monospace" font-weight="700" text-anchor="middle">
    <text x="32" y="39" font-size="18" fill="#020805" stroke="#020805" stroke-width="3" stroke-linejoin="round">20</text>
    <text x="32" y="39" font-size="18" fill="#f1c453">20</text>
  </g>
</svg>
